<svg xmlns="http://www.w3.org/2000/svg" width="45px" height="13.5px" viewBox="0 0 308.42 96.22"><title>flitto_logo</title><circle cx="118.7" cy="11.71" r="11.71" style="fill:#0064e5"/><path d="M1.6,93.62H17.49a1.6,1.6,0,0,0,1.6-1.6V56.71H51.74a1.6,1.6,0,0,0,1.6-1.6V41.4a1.6,1.6,0,0,0-1.6-1.6H19.09V17.66H51.74a1.6,1.6,0,0,0,1.6-1.6V3.58A1.6,1.6,0,0,0,51.74,2H1.6A1.6,1.6,0,0,0,0,3.58V92A1.6,1.6,0,0,0,1.6,93.62Z" style="fill:#0064e5"/><rect x="70.74" y="1.35" width="19.24" height="92.31" rx="1.6" style="fill:#0064e5"/><rect x="109.04" y="31.9" width="19.24" height="61.93" rx="1.6" style="fill:#0064e5"/><path d="M269.91,19.21a38.51,38.51,0,1,0,38.51,38.5h0A38.51,38.51,0,0,0,269.91,19.21Zm0,59.2a20.69,20.69,0,1,1,20.69-20.7,20.69,20.69,0,0,1-20.69,20.7Z" style="fill:#0064e5"/><path d="M146.31,2.74a1.6,1.6,0,0,1,1.6-1.6h15.43a1.6,1.6,0,0,1,1.6,1.6V19.93h12.48a1.6,1.6,0,0,1,1.6,1.6h0V34.45a1.6,1.6,0,0,1-1.6,1.6H164.93V65.33c0,11.78,2.49,13.26,9.78,13.26a29.35,29.35,0,0,0,5.61-.51,1.76,1.76,0,0,1,2.1,1.34.59.59,0,0,1,0,.13c.06,2.85,0,8.74,0,11.66a2.74,2.74,0,0,1-2.07,2.7c-2.65.68-5.55.91-11.7.91-7,0-12.88-2.33-16.45-6.21-4-4.35-5.9-11.17-5.9-21.1V2.74Z" style="fill:#0064e5"/><path d="M191.51,2.74a1.61,1.61,0,0,1,1.61-1.6h15.42a1.6,1.6,0,0,1,1.6,1.6V19.93h12.48a1.6,1.6,0,0,1,1.6,1.6h0V34.45a1.6,1.6,0,0,1-1.6,1.6H210.13V65.33c0,11.78,2.49,13.26,9.78,13.26a29.53,29.53,0,0,0,5.62-.51,1.76,1.76,0,0,1,2.09,1.34.59.59,0,0,1,0,.13c.06,2.85,0,8.74,0,11.66a2.74,2.74,0,0,1-2.07,2.7c-2.65.68-5.55.91-11.7.91-7,0-12.88-2.33-16.45-6.21-4-4.35-5.9-11.17-5.9-21.1V2.74Z" style="fill:#0064e5"/></svg>